<svg width="65" height="64" viewBox="0 0 65 64" xmlns="http://www.w3.org/2000/svg"><title>icon3</title><g transform="translate(2 2)" stroke="#F5BA30" fill="none" fill-rule="evenodd"><rect stroke-width="3" x="11.012" y="15.702" width="39.104" height="28.241" rx="4.5"/><g transform="translate(22.11 21.333)" stroke-width="1.5"><ellipse cx="8.453" cy="8.49" rx="7.603" ry="7.603"/><path d="M4.524 2.26L4.15 5.172l.704 3.155-.27 1.02-.292 1.1L.942 7.99M13.52 2.773s.62 1.555-3.427 1.555c-4.048 0-2.55 1.817-2.55 1.817l1.127 2.21-.894 1.564.19 2.364 3.014-1.133s1.323-2.943 1.323-1.47c0 1.47 1.697 2.92 1.697 2.92" stroke-linecap="round" stroke-linejoin="round"/></g><path d="M20.788 49.5h18.674" stroke-width="3" stroke-linecap="round" stroke-linejoin="round"/><path d="M30.5 50.708v-7.85M30 60c16.57 0 30-13.43 30-30S46.57 0 30 0 0 13.43 0 30s13.43 30 30 30z" stroke-width="3"/></g></svg>