<svg width="37" height="37" viewBox="0 0 37 37" xmlns="http://www.w3.org/2000/svg" xmlns:xlink="http://www.w3.org/1999/xlink"><title>user</title><defs><path id="a" d="M0 .098h14.96v18.715H0V.098z"/></defs><g transform="translate(1 1)" fill="none" fill-rule="evenodd"><circle stroke="#FFF" stroke-width="2" cx="17.111" cy="17.111" r="17.111"/><g transform="translate(10 7)"><mask id="b" fill="#fff"><use xlink:href="#a"/></mask><path d="M14.96 18.813H0V15.66c0-2.46 1.98-4.453 4.424-4.453h6.11c2.445 0 4.426 1.993 4.426 4.452v3.153z" fill="#FFF" mask="url(#b)"/></g><path d="M17.48 7.098c-2.044 0-3.715 1.682-3.715 3.738v2.328c0 2.056 1.67 3.738 3.715 3.738 2.043 0 3.715-1.682 3.715-3.738v-2.328c0-2.056-1.672-3.738-3.715-3.738" fill="#FFF"/></g></svg>