<?xml version="1.0" encoding="UTF-8" standalone="no"?>
<svg width="65px" height="64px" viewBox="0 0 65 64" version="1.1" xmlns="http://www.w3.org/2000/svg" xmlns:xlink="http://www.w3.org/1999/xlink" xmlns:sketch="http://www.bohemiancoding.com/sketch/ns">
    <!-- Generator: Sketch 3.5.1 (25234) - http://www.bohemiancoding.com/sketch -->
    <title>icon3</title>
    <desc>Created with Sketch.</desc>
    <defs></defs>
    <g id="Welcome" stroke="none" stroke-width="1" fill="none" fill-rule="evenodd" sketch:type="MSPage">
        <g id="icon3" sketch:type="MSArtboardGroup" stroke="#F5BA30">
            <g id="Group" sketch:type="MSLayerGroup" transform="translate(2.000000, 2.000000)">
                <rect id="Rectangle-418" stroke-width="3" sketch:type="MSShapeGroup" x="11.0117188" y="15.7023464" width="39.1035156" height="28.241428" rx="4.5"></rect>
                <g id="Oval-336-+-Path-1832-+-Path-1831" transform="translate(22.110001, 21.332728)" stroke-width="1.5" sketch:type="MSShapeGroup">
                    <ellipse id="Oval-336" cx="8.45347595" cy="8.49033276" rx="7.60346137" ry="7.60346137"></ellipse>
                    <path d="M4.52403088,2.25905856 L4.15054054,5.17347125 L4.85445473,8.32771967 C4.85445473,8.32771967 4.67391418,9.00748582 4.58364391,9.34736889 C4.48630273,9.7138751 4.29162039,10.4468875 4.29162039,10.4468875 L0.940602695,7.98987056" id="Path-1832" stroke-linecap="round" stroke-linejoin="round"></path>
                    <path d="M13.5212127,2.77288622 C13.5212127,2.77288622 14.1412215,4.3284772 10.0929723,4.3284772 C6.04472315,4.3284772 7.54388218,6.14469463 7.54388218,6.14469463 L8.67029341,8.35593564 L7.77629267,9.91895187 L7.96637921,12.2838957 L10.9795478,11.1508017 C10.9795478,11.1508017 12.3034707,8.20743054 12.3034708,9.67911613 C12.3034709,11.1508017 14.0001416,12.6009541 14.0001416,12.6009541" id="Path-1831" stroke-linecap="round" stroke-linejoin="round"></path>
                </g>
                <path d="M20.7875977,49.5 L39.4616302,49.5" id="Path-1785" stroke-width="3" stroke-linecap="round" stroke-linejoin="round" sketch:type="MSShapeGroup"></path>
                <path d="M30.5,50.7082915 L30.5,42.8575656" id="Path-1786" stroke-width="3" sketch:type="MSShapeGroup"></path>
                <path d="M30,60 C46.5685425,60 60,46.5685425 60,30 C60,13.4314575 46.5685425,0 30,0 C13.4314575,0 0,13.4314575 0,30 C0,46.5685425 13.4314575,60 30,60 Z" id="Oval-34" stroke-width="3" sketch:type="MSShapeGroup"></path>
            </g>
        </g>
    </g>
</svg>