<?xml version="1.0" encoding="UTF-8" standalone="no"?>
<svg width="65px" height="64px" viewBox="0 0 65 64" version="1.1" xmlns="http://www.w3.org/2000/svg" xmlns:xlink="http://www.w3.org/1999/xlink" xmlns:sketch="http://www.bohemiancoding.com/sketch/ns">
    <!-- Generator: Sketch 3.5.1 (25234) - http://www.bohemiancoding.com/sketch -->
    <title>icon1</title>
    <desc>Created with Sketch.</desc>
    <defs></defs>
    <g id="Welcome" stroke="none" stroke-width="1" fill="none" fill-rule="evenodd" sketch:type="MSPage">
        <g id="icon1" sketch:type="MSArtboardGroup" stroke="#F5BA30">
            <g id="Group" sketch:type="MSLayerGroup" transform="translate(2.500000, 2.000000)">
                <path d="M17.2432012,55.6873046 L17.2432012,46.5091019 L17.2432012,46.5091019 C17.2432012,43.9794188 19.1747292,41.9287054 21.5872754,41.9287054 L37.5145117,41.9287054 C39.9136776,41.9287054 41.8585859,43.97904 41.8585859,46.5091019 L41.8585859,55.6873046" id="Rectangle-446" stroke-width="3" stroke-linecap="round" stroke-linejoin="round" sketch:type="MSShapeGroup"></path>
                <path d="M45.0598291,39.5 L53.6462315,39.5" id="Path-1828" stroke-width="3" stroke-linecap="round" stroke-linejoin="round" sketch:type="MSShapeGroup"></path>
                <path d="M20.1738906,42.0748238 L17.0469999,35.9439594 L17.6724418,37.1702574 C15.9455077,33.7842744 16.0669202,28.3741131 17.9504955,25.0742858 L27.5115899,8.324247 C28.6378662,6.35112862 30.4691989,6.35002886 31.6030327,8.32361267 L41.1702757,24.976631 C43.0605722,28.2669354 43.2366379,33.692429 41.5599158,37.1021587 L39.218028,41.8645485" id="Rectangle-446" stroke-width="3" stroke-linecap="round" stroke-linejoin="round" sketch:type="MSShapeGroup"></path>
                <path d="M29.5692563,8.85365121 L29.5692563,26.6025682 C29.5692563,26.6025682 22.2982893,30.6954273 29.5692563,36.4313121" id="Path-1827" stroke-width="1.5" stroke-linecap="round" stroke-linejoin="round" sketch:type="MSShapeGroup"></path>
                <path d="M30,60 C46.5685425,60 60,46.5685425 60,30 C60,13.4314575 46.5685425,0 30,0 C13.4314575,0 0,13.4314575 0,30 C0,46.5685425 13.4314575,60 30,60 Z" id="Oval-34" stroke-width="3" sketch:type="MSShapeGroup"></path>
                <path d="M49.3530303,35.2067988 L49.3530303,43.7932012" id="Path-1828" stroke-width="3" stroke-linecap="round" stroke-linejoin="round" sketch:type="MSShapeGroup"></path>
            </g>
        </g>
    </g>
</svg>