<?xml version="1.0" encoding="UTF-8" standalone="no"?>
<svg width="65px" height="64px" viewBox="0 0 65 64" version="1.1" xmlns="http://www.w3.org/2000/svg" xmlns:xlink="http://www.w3.org/1999/xlink" xmlns:sketch="http://www.bohemiancoding.com/sketch/ns">
    <!-- Generator: Sketch 3.5.1 (25234) - http://www.bohemiancoding.com/sketch -->
    <title>icon2</title>
    <desc>Created with Sketch.</desc>
    <defs></defs>
    <g id="Welcome" stroke="none" stroke-width="1" fill="none" fill-rule="evenodd" sketch:type="MSPage">
        <g id="icon2" sketch:type="MSArtboardGroup" stroke="#F5BA30">
            <g id="Group" sketch:type="MSLayerGroup" transform="translate(3.000000, 2.000000)">
                <g sketch:type="MSShapeGroup">
                    <path d="M12,54 L12,20.0430028 C12,18.2230861 13.5615694,16.7477521 15.4657786,16.7477521 L44.3403738,16.7477521 C46.2544704,16.7477521 47.8061523,18.2171532 47.8061523,20.0430028 L47.8061523,54" id="Rectangle-419" stroke-width="3" stroke-linecap="round" stroke-linejoin="round"></path>
                    <path d="M16.7741536,56 L16.7741536,26.2854619 L43.0319987,26.2854619 L43.0319987,56" id="Rectangle-446" stroke-width="3" stroke-linecap="round" stroke-linejoin="round"></path>
                    <path d="M26.3224609,21.5 L33.4836914,21.5" id="Path-1828-Copy-2" stroke-width="3" stroke-linecap="round" stroke-linejoin="round"></path>
                    <rect id="Rectangle-446" stroke-width="1.5" x="21.5483073" y="34.630958" width="16.7095378" height="16.6909922" rx="4.5"></rect>
                    <path d="M30,60 C46.5685425,60 60,46.5685425 60,30 C60,13.4314575 46.5685425,0 30,0 C13.4314575,0 0,13.4314575 0,30 C0,46.5685425 13.4314575,60 30,60 Z" id="Oval-34" stroke-width="3"></path>
                </g>
            </g>
        </g>
    </g>
</svg>