<?xml version="1.0" encoding="UTF-8" standalone="no"?>
<svg width="37px" height="37px" viewBox="0 0 37 37" version="1.1" xmlns="http://www.w3.org/2000/svg" xmlns:xlink="http://www.w3.org/1999/xlink" xmlns:sketch="http://www.bohemiancoding.com/sketch/ns">
    <!-- Generator: Sketch 3.5.1 (25234) - http://www.bohemiancoding.com/sketch -->
    <title>user</title>
    <desc>Created with Sketch.</desc>
    <defs>
        <path id="path-1" d="M0,0.0976386592 L14.9596822,0.0976386592 L14.9596822,18.8130463 L0,18.8130463 L0,0.0976386592 Z"></path>
    </defs>
    <g id="Welcome" stroke="none" stroke-width="1" fill="none" fill-rule="evenodd" sketch:type="MSPage">
        <g id="user" sketch:type="MSArtboardGroup">
            <g id="Group-2" sketch:type="MSLayerGroup" transform="translate(1.000000, 1.000000)">
                <circle id="Oval-7" stroke="#FFFFFF" stroke-width="2" sketch:type="MSShapeGroup" cx="17.1111111" cy="17.1111111" r="17.1111111"></circle>
                <g id="Page-1" transform="translate(10.000000, 7.000000)">
                    <g id="Group-3">
                        <mask id="mask-2" sketch:name="Clip 2" fill="white">
                            <use xlink:href="#path-1"></use>
                        </mask>
                        <g id="Clip-2"></g>
                        <path d="M14.9596717,18.8130463 L-1.04444443e-05,18.8130463 L-1.04444443e-05,15.6586555 C-1.04444443e-05,13.1998218 1.98088288,11.2065848 4.42436066,11.2065848 L10.5353006,11.2065848 C12.9788829,11.2065848 14.9596717,13.1998218 14.9596717,15.6586555 L14.9596717,18.8130463 Z" id="Fill-1" fill="#FFFFFF" sketch:type="MSShapeGroup" mask="url(#mask-2)"></path>
                    </g>
                    <g id="Group-6" transform="translate(3.000000, 0.000000)" fill="#FFFFFF" sketch:type="MSShapeGroup">
                        <path d="M4.47984109,0.0976281491 L4.47984109,0.0976281491 C2.43648999,0.0976281491 0.764647768,1.77997693 0.764647768,3.83606422 L0.764647768,6.16383712 C0.764647768,8.2200295 2.43648999,9.90237828 4.47984109,9.90237828 L4.47984109,9.90237828 C6.5231922,9.90237828 8.19492997,8.2200295 8.19492997,6.16383712 L8.19492997,3.83606422 C8.19492997,1.77997693 6.5231922,0.0976281491 4.47984109,0.0976281491" id="Fill-4"></path>
                    </g>
                </g>
            </g>
        </g>
    </g>
</svg>