<svg width="65" height="64" viewBox="0 0 65 64" xmlns="http://www.w3.org/2000/svg"><title>icon1</title><g stroke="#F5BA30" fill="none" fill-rule="evenodd"><path d="M19.743 57.687V48.51c0-2.53 1.932-4.58 4.344-4.58h15.928c2.4 0 4.344 2.05 4.344 4.58v9.177M47.56 41.5h8.586" stroke-width="3" stroke-linecap="round" stroke-linejoin="round"/><path d="M22.674 44.075l-3.127-6.13.625 1.225c-1.726-3.386-1.605-8.796.278-12.096l9.562-16.75c1.126-1.973 2.957-1.974 4.09 0l9.568 16.653c1.89 3.29 2.067 8.715.39 12.125l-2.342 4.763" stroke-width="3" stroke-linecap="round" stroke-linejoin="round"/><path d="M32.07 10.854v17.75s-7.272 4.09 0 9.827" stroke-width="1.5" stroke-linecap="round" stroke-linejoin="round"/><path d="M32.5 62c16.57 0 30-13.43 30-30S49.07 2 32.5 2s-30 13.43-30 30 13.43 30 30 30z" stroke-width="3"/><path d="M51.853 37.207v8.586" stroke-width="3" stroke-linecap="round" stroke-linejoin="round"/></g></svg>