<svg width="50" height="30" viewBox="0 0 50 30" xmlns="http://www.w3.org/2000/svg"><title>ion logo</title><g fill="#FFF" fill-rule="evenodd"><path d="M3.037 27.905h3.807V2.122H3.037v25.783zM43.303 2.122v20.062L27.05 2.267c-2.682-.724-6.526.54-7.76 1.16-5.43 2.724-9.762 9.55-6.297 17.308 3.32 7.433 13.5 9.665 20.573 4.128 1.366-1.07 2.865-2.608 3.44-4.417.05-.025.098-.05.147-.073l6.15 7.532h3.66V2.122h-3.66zm-20.06 22.234c-5.004-1.04-9.567-6.688-6.955-12.963 1.392-3.344 4.115-5 6.735-5.577h.22v18.54zm3.66-.078c.025-5.43-.024-10.858 0-16.29l7.248 8.69c-.052 3.49-3.882 7.38-7.247 7.6z"/></g></svg>